<svg xmlns="http://www.w3.org/2000/svg" version="1.1" xmlns:xlink="http://www.w3.org/1999/xlink" xmlns:svgjs="http://svgjs.dev/svgjs" width="1440" height="560" preserveAspectRatio="none" viewBox="0 0 1440 560"><g mask="url(&quot;#SvgjsMask1006&quot;)" fill="none"><rect width="1440" height="560" x="0" y="0" fill="rgba(126, 96, 191, 1)"></rect><path d="M280 112.9C263.51 115.01 256.99 123.82 256.99 140C256.99 181.58 254.56 194.39 280 228.42C306.9 264.39 334.43 242.73 361.67 280C404.43 338.52 390.84 350 420 420C420 420 420 420 420 420C470.64 490 521.28 515.87 521.28 560C521.28 585.87 470.64 560 420 560C374.23 560 357.46 584.86 328.46 560C287.46 524.86 311.07 440 280 440C244.84 440 246.64 516.59 196 560C176.64 576.59 168 560 140 560C114.55 560 109.65 572.33 89.09 560C39.65 530.33 30.57 524.03 0 476C-13.98 454.03 0 448 0 420C0 382.31 -24.18 362.51 0 344.62C45.82 310.74 71.01 334.34 140 316.46C195.7 302.03 249.38 299.17 249.38 280C249.38 260.59 196.46 244.66 140 239.3C71.77 232.83 38.36 283.55 0 256.34C-31.64 233.9 0 198.17 0 140C0 70 -35 35 0 0C35 -35 70 0 140 0C210 0 210 0 280 0C350 0 350 0 420 0C486.66 0 488.25 -3.52 553.33 0C558.25 0.27 556.18 7.57 560 7.57C565.12 7.57 564.55 0.36 571.2 0C634.55 -3.43 635.6 0 700 0C770 0 770 0 840 0C910 0 910 0 980 0C1044.16 0 1083.05 -33.27 1108.33 0C1136.25 36.73 1105.31 72.18 1086.4 140C1066.27 212.18 1021.14 217.62 1030.26 280C1037.94 332.49 1067.66 362.55 1120 369.74C1182.53 378.33 1189.94 340.49 1260 311.55C1298.56 295.62 1325.21 311.95 1337.24 280C1357.52 226.17 1338.67 208.43 1324.62 140C1309.93 68.43 1259.03 38.51 1279.76 0C1296.72 -31.49 1339.88 0 1400 0C1470 0 1490.17 -20.17 1540 0C1560.17 8.16 1552.72 33.27 1540 56.67C1514.67 103.27 1463.91 104.05 1463.91 140C1463.91 168.15 1521.68 151.17 1540 184.87C1559.73 221.17 1540 232.43 1540 280C1540 350 1540 350 1540 420C1540 483.83 1573.32 514.33 1540 547.65C1503.32 584.33 1470 553.83 1400 560C1400 560 1400 560 1400 560C1330 560 1330 560 1260 560C1190 560 1190 560 1120 560C1050 560 1050 560 980 560C910 560 910 560 840 560C770 560 770 560 700 560C680.56 560 673.52 573.14 661.11 560C607.41 503.14 562.18 487.21 567.78 420C573.85 347.21 686.73 328.91 684.44 280C682.84 245.88 612.81 284.61 560 253.95C492.26 214.61 502.06 196.55 443.33 140C432.06 129.15 434.91 121.62 420 119.15C353.24 108.07 345.01 104.58 280 112.9" stroke="rgba(211, 211, 211, 0.58)" stroke-width="2"></path><path d="M0 51.85C15.81 17.85 28.27 13.65 65.12 0C98.27 -12.28 102.56 0 140 0C210 0 210 0 280 0C350 0 350 0 420 0C445 0 470 -9.54 470 0C470 12.8 450.69 35.56 420 44.68C355.69 63.79 339.25 29.68 280 56.45C233.77 77.34 247.37 101.08 209.04 140C177.37 172.15 181.01 185.45 140 198.6C76.49 218.97 47.36 226.86 0 207.04C-22.64 197.56 0 173.52 0 140C0 95.93 -16.75 87.85 0 51.85" stroke="rgba(211, 211, 211, 0.58)" stroke-width="2"></path><path d="M526.67 140C526.67 121.7 540.1 117.41 560 102.16C626.76 51 636.44 -1.95 700 7.18C768.1 16.97 761.3 73.94 823.33 140C831.3 148.49 830.11 156.28 840 156.28C857.89 156.28 860.86 150.78 878.89 140C930.86 108.93 937.83 72.59 980 72.59C1006.59 72.59 1016.4 105.86 1016.4 140C1016.4 177.48 998.34 177.98 980 215.83C964.42 247.98 948.57 250.19 948.57 280C948.57 299.38 963.74 297.63 980 314.22C1032.35 367.63 1085.78 369.27 1085.78 420C1085.78 467.06 1036.32 469.89 980 509.81C937.57 539.89 936.17 542.83 888.28 560C866.17 567.93 864.14 560 840 560C816.66 560 793.33 569.44 793.33 560C793.33 546.86 821.3 541 840 514.84C871.36 471 893.45 463.28 893.45 420C893.45 390.95 865.76 396.06 840 370.17C796.13 326.06 797.38 324.81 754.19 280C727.38 252.18 733.09 243.23 700 224.92C635.99 189.51 626.07 204.93 560 172.56C539.4 162.47 526.67 156.9 526.67 140" stroke="rgba(211, 211, 211, 0.58)" stroke-width="2"></path><path d="M1400 129.23C1354.01 129.23 1320.94 42.46 1320.94 0C1320.94 -22.16 1360.47 0 1400 0C1460 0 1520 -26.16 1520 0C1520 38.45 1453.54 129.23 1400 129.23" stroke="rgba(211, 211, 211, 0.58)" stroke-width="2"></path><path d="M1442 280C1484.04 246.89 1506.35 229.74 1540 229.74C1555.35 229.74 1540 254.87 1540 280C1540 350 1540 350 1540 420C1540 432.36 1550.3 440.69 1540 444.71C1480.3 468 1458.22 441.48 1400 474.63C1356.97 499.13 1377.9 535.36 1337.5 560C1307.9 578.05 1298.75 560 1260 560C1213.83 560 1187.98 587.78 1167.66 560C1136.76 517.78 1132.5 474.04 1157.56 420C1178.67 374.46 1204.81 379.06 1260 360.85C1326.03 339.06 1340.03 366.64 1400 340C1431.03 326.22 1414.04 302.02 1442 280" stroke="rgba(211, 211, 211, 0.58)" stroke-width="2"></path><path d="M27.02 420C27.02 379.87 84.86 352.92 140 352.92C188.7 352.92 234.71 380.75 234.71 420C234.71 468.87 189.76 529.15 140 529.15C85.91 529.15 27.02 467.98 27.02 420" stroke="rgba(211, 211, 211, 0.58)" stroke-width="2"></path><path d="M395.77 560C395.77 548.02 407.45 522.94 420 522.94C432.97 522.94 446.81 548.32 446.81 560C446.81 566.85 433.4 560 420 560C407.88 560 395.77 566.55 395.77 560" stroke="rgba(211, 211, 211, 0.58)" stroke-width="2"></path><path d="M0 116.67C61.52 64.61 92.92 14.72 140 21.54C173.47 26.39 161.1 84.57 161.1 140C161.1 152.75 153.3 156.45 140 157.91C72.75 165.32 62.12 165.7 0 157.75C-7.88 156.74 0 148.88 0 140C0 128.34 -8.48 123.84 0 116.67" stroke="rgba(211, 211, 211, 0.58)" stroke-width="2"></path><path d="M637.78 140C637.78 121.41 671.23 96.92 700 96.92C722.34 96.92 740 120.66 740 140C740 155.97 721.29 167.54 700 167.54C670.18 167.54 637.78 156.72 637.78 140" stroke="rgba(211, 211, 211, 0.58)" stroke-width="2"></path><path d="M1400 61.92C1377.96 61.92 1362.12 20.34 1362.12 0C1362.12 -10.62 1381.06 0 1400 0C1428.75 0 1457.5 -12.54 1457.5 0C1457.5 18.42 1425.65 61.92 1400 61.92" stroke="rgba(211, 211, 211, 0.58)" stroke-width="2"></path><path d="M810.65 280C810.65 259.97 824.12 237.67 840 237.67C857.36 237.67 877.14 260.3 877.14 280C877.14 296.89 857.67 310.85 840 310.85C824.42 310.85 810.65 296.56 810.65 280" stroke="rgba(211, 211, 211, 0.58)" stroke-width="2"></path><path d="M1529.5 280C1529.5 275.7 1536.39 274.62 1540 274.62C1541.64 274.62 1540 277.31 1540 280C1540 289.54 1542.45 299.09 1540 299.09C1537.2 299.09 1529.5 287.94 1529.5 280" stroke="rgba(211, 211, 211, 0.58)" stroke-width="2"></path><path d="M88.42 420C88.42 401.68 114.83 389.38 140 389.38C162.24 389.38 183.24 402.08 183.24 420C183.24 442.31 162.72 469.83 140 469.83C115.31 469.83 88.42 441.9 88.42 420" stroke="rgba(211, 211, 211, 0.58)" stroke-width="2"></path><path d="M957.09 420C957.09 406.47 967.85 392 980 392C993.3 392 1008 406.57 1008 420C1008 432.46 993.41 443.77 980 443.77C967.95 443.77 957.09 432.35 957.09 420" stroke="rgba(211, 211, 211, 0.58)" stroke-width="2"></path><path d="M1242.93 420C1244.03 410.75 1250.65 410.14 1260 410.14C1284.18 410.14 1308.04 400.44 1310 420C1315.54 475.37 1297.65 496.59 1275 560C1272.65 566.59 1267.5 560 1260 560C1251.07 560 1243.1 567.92 1242.13 560C1234.56 497.92 1235.1 485.68 1242.93 420" stroke="rgba(211, 211, 211, 0.58)" stroke-width="2"></path></g><defs><mask id="SvgjsMask1006"><rect width="1440" height="560" fill="#ffffff"></rect></mask></defs></svg>