<svg xmlns="http://www.w3.org/2000/svg" version="1.1" xmlns:xlink="http://www.w3.org/1999/xlink" xmlns:svgjs="http://svgjs.dev/svgjs" width="1440" height="560" preserveAspectRatio="none" viewBox="0 0 1440 560"><g mask="url(&quot;#SvgjsMask1001&quot;)" fill="none"><rect width="1440" height="560" x="0" y="0" fill="rgba(255, 255, 255, 1)"></rect><path d="M 0,5 C 57.6,52.4 172.8,220.4 288,242 C 403.2,263.6 460.8,119.2 576,113 C 691.2,106.8 748.8,226.2 864,211 C 979.2,195.8 1036.8,23.8 1152,37 C 1267.2,50.2 1382.4,229 1440,277L1440 560L0 560z" fill="#184a7e"></path><path d="M 0,399 C 96,419.6 288,505.2 480,502 C 672,498.8 768,376.2 960,383 C 1152,389.8 1344,505.4 1440,536L1440 560L0 560z" fill="#2264ab"></path></g><defs><mask id="SvgjsMask1001"><rect width="1440" height="560" fill="#ffffff"></rect></mask></defs></svg>